0
SECTION
2
HEADER
9
$INSUNITS
70
4
9
$ACADVER
1
AC1014
9
$HANDSEED
5
FFFF
0
ENDSEC
0
SECTION
2
TABLES
0
TABLE
2
VPORT
5
8
100
AcDbSymbolTable
0
ENDTAB
0
TABLE
2
LTYPE
5
5
100
AcDbSymbolTable
0
LTYPE
5
14
100
AcDbSymbolTableRecord
100
AcDbLinetypeTableRecord
2
BYBLOCK
70
0
0
LTYPE
5
15
100
AcDbSymbolTableRecord
100
AcDbLinetypeTableRecord
2
BYLAYER
70
0
0
ENDTAB
0
TABLE
2
LAYER
5
2
100
AcDbSymbolTable
70
2
0
LAYER
5
50
100
AcDbSymbolTableRecord
100
AcDbLayerTableRecord
2
0
70
0
6
CONTINUOUS
0
ENDTAB
0
TABLE
2
STYLE
5
3
100
AcDbSymbolTable
70
1
0
STYLE
5
11
100
AcDbSymbolTableRecord
100
AcDbTextStyleTableRecord
2
STANDARD
70
0
0
ENDTAB
0
TABLE
2
VIEW
5
6
100
AcDbSymbolTable
70
0
0
ENDTAB
0
TABLE
2
UCS
5
7
100
AcDbSymbolTable
70
0
0
ENDTAB
0
TABLE
2
APPID
5
9
100
AcDbSymbolTable
70
2
0
APPID
5
12
100
AcDbSymbolTableRecord
100
AcDbRegAppTableRecord
2
ACAD
70
0
0
ENDTAB
0
TABLE
2
DIMSTYLE
5
A
100
AcDbSymbolTable
70
1
0
ENDTAB
0
TABLE
2
BLOCK_RECORD
5
1
100
AcDbSymbolTable
70
1
0
BLOCK_RECORD
5
1F
100
AcDbSymbolTableRecord
100
AcDbBlockTableRecord
2
*MODEL_SPACE
0
BLOCK_RECORD
5
1B
100
AcDbSymbolTableRecord
100
AcDbBlockTableRecord
2
*PAPER_SPACE
0
ENDTAB
0
ENDSEC
0
SECTION
2
BLOCKS
0
BLOCK
5
20
100
AcDbEntity
100
AcDbBlockBegin
2
*MODEL_SPACE
0
ENDBLK
5
21
100
AcDbEntity
100
AcDbBlockEnd
0
BLOCK
5
1C
100
AcDbEntity
100
AcDbBlockBegin
2
*PAPER_SPACE
0
ENDBLK
5
1D
100
AcDbEntity
100
AcDbBlockEnd
0
ENDSEC
0
SECTION
2
ENTITIES
0
LWPOLYLINE
5
100
100
AcDbEntity
8
0
100
AcDbPolyline
90
8
70
1
43
0.0
10
292.43200000000002
20
-50.742889123270196
10
345.93244956934677
20
-50.742889123270238
42
-0.41421356237331186
10
346.23244956934678
20
-51.042889123270186
10
346.23244956934678
20
-51.492889123270189
42
-0.41421356237331186
10
345.93244956934677
20
-51.792889123270157
10
292.43200000000002
20
-51.792889123270179
42
-0.41421356237293894
10
292.13200000000001
20
-51.492889123270189
10
292.13200000000006
20
-51.042889123270207
42
-0.41421356237298235
0
LWPOLYLINE
5
101
100
AcDbEntity
8
0
100
AcDbPolyline
90
4
70
1
43
0.0
10
264.55700000000002
20
-59.933800000000005
10
278.55700000000002
20
-59.933800000000005
10
278.55700000000002
20
-73.933099999999996
10
264.55700000000002
20
-73.933099999999996
0
LWPOLYLINE
5
102
100
AcDbEntity
8
0
100
AcDbPolyline
90
4
70
1
43
0.0
10
121.39400000000001
20
-73.933099999999996
10
107.395
20
-73.933099999999996
10
107.395
20
-59.933800000000005
10
121.39400000000001
20
-59.933800000000005
0
LWPOLYLINE
5
103
100
AcDbEntity
8
0
100
AcDbPolyline
90
4
70
1
43
0.0
10
31.194700000000001
20
-59.933800000000005
10
45.194000000000003
20
-59.933800000000005
10
45.194000000000003
20
-73.933099999999996
10
31.194700000000001
20
-73.933099999999996
0
LWPOLYLINE
5
104
100
AcDbEntity
8
0
100
AcDbPolyline
90
4
70
1
43
0.0
10
331.23199999999997
20
-59.933800000000005
10
345.23199999999997
20
-59.933800000000005
10
345.23199999999997
20
-73.933099999999996
10
331.23199999999997
20
-73.933099999999996
0
LWPOLYLINE
5
105
100
AcDbEntity
8
0
100
AcDbPolyline
90
4
70
1
43
0.0
10
50.244700000000009
20
-73.933099999999996
10
50.244700000000009
20
-59.933800000000005
10
64.244
20
-59.933800000000005
10
64.244
20
-73.933099999999996
0
LWPOLYLINE
5
106
100
AcDbEntity
8
0
100
AcDbPolyline
90
4
70
1
43
0.0
10
140.44399999999999
20
-59.933800000000005
10
140.44399999999999
20
-73.933099999999996
10
126.44500000000001
20
-73.933099999999996
10
126.44500000000001
20
-59.933800000000005
0
LWPOLYLINE
5
107
100
AcDbEntity
8
0
100
AcDbPolyline
90
4
70
1
43
0.0
10
145.495
20
-59.933800000000005
10
159.494
20
-59.933800000000005
10
159.494
20
-73.933099999999996
10
145.495
20
-73.933099999999996
0
LWPOLYLINE
5
108
100
AcDbEntity
8
0
100
AcDbPolyline
90
4
70
1
43
0.0
10
164.54499999999999
20
-59.933800000000005
10
178.54400000000001
20
-59.933800000000005
10
178.54400000000001
20
-73.933099999999996
10
164.54499999999999
20
-73.933099999999996
0
LWPOLYLINE
5
109
100
AcDbEntity
8
0
100
AcDbPolyline
90
4
70
1
43
0.0
10
307.13200000000001
20
-73.933099999999996
10
293.13200000000001
20
-73.933099999999996
10
293.13200000000001
20
-59.933800000000005
10
307.13200000000001
20
-59.933800000000005
0
LWPOLYLINE
5
110
100
AcDbEntity
8
0
100
AcDbPolyline
90
4
70
1
43
0.0
10
312.18200000000002
20
-73.933099999999996
10
312.18200000000002
20
-59.933800000000005
10
326.18200000000002
20
-59.933800000000005
10
326.18200000000002
20
-73.933099999999996
0
LWPOLYLINE
5
111
100
AcDbEntity
8
0
100
AcDbPolyline
90
4
70
1
43
0.0
10
150.25700000000001
20
-40.883800000000001
10
164.25700000000003
20
-40.883800000000001
10
164.25700000000003
20
-54.883099999999999
10
150.25700000000001
20
-54.883099999999999
0
LWPOLYLINE
5
112
100
AcDbEntity
8
0
100
AcDbPolyline
90
4
70
1
43
0.0
10
88.0565
20
-54.883099999999999
10
74.057199999999995
20
-54.883099999999999
10
74.057199999999995
20
-40.883800000000001
10
88.0565
20
-40.883800000000001
0
LWPOLYLINE
5
113
100
AcDbEntity
8
0
100
AcDbPolyline
90
4
70
1
43
0.0
10
35.9572
20
-40.883800000000001
10
49.956500000000005
20
-40.883800000000001
10
49.956500000000005
20
-54.883099999999999
10
35.9572
20
-54.883099999999999
0
LWPOLYLINE
5
114
100
AcDbEntity
8
0
100
AcDbPolyline
90
4
70
1
43
0.0
10
240.45699999999999
20
-54.883099999999999
10
226.45700000000002
20
-54.883099999999999
10
226.45700000000002
20
-40.883800000000001
10
240.45699999999999
20
-40.883800000000001
0
LWPOLYLINE
5
115
100
AcDbEntity
8
0
100
AcDbPolyline
90
4
70
1
43
0.0
10
183.30700000000004
20
-54.883099999999999
10
169.30700000000002
20
-54.883099999999999
10
169.30700000000002
20
-40.883800000000001
10
183.30700000000004
20
-40.883800000000001
0
LWPOLYLINE
5
116
100
AcDbEntity
8
0
100
AcDbPolyline
90
4
70
1
43
0.0
10
112.15700000000001
20
-54.883099999999999
10
112.15700000000001
20
-40.883800000000001
10
126.15700000000002
20
-40.883800000000001
10
126.15700000000002
20
-54.883099999999999
0
LWPOLYLINE
5
117
100
AcDbEntity
8
0
100
AcDbPolyline
90
4
70
1
43
0.0
10
221.40700000000004
20
-54.883099999999999
10
207.40700000000004
20
-54.883099999999999
10
207.40700000000004
20
-40.883800000000001
10
221.40700000000004
20
-40.883800000000001
0
LWPOLYLINE
5
118
100
AcDbEntity
8
0
100
AcDbPolyline
90
4
70
1
43
0.0
10
55.007200000000005
20
-54.883099999999999
10
55.007200000000005
20
-40.883800000000001
10
69.006500000000003
20
-40.883800000000001
10
69.006500000000003
20
-54.883099999999999
0
LWPOLYLINE
5
119
100
AcDbEntity
8
0
100
AcDbPolyline
90
4
70
1
43
0.0
10
23.762900000000002
20
-54.883099999999999
10
9.7620300000000011
20
-54.883099999999999
10
9.7620300000000011
20
-40.883800000000001
10
23.762900000000002
20
-40.883800000000001
0
LWPOLYLINE
5
120
100
AcDbEntity
8
0
100
AcDbPolyline
90
4
70
1
43
0.0
10
107.10700000000003
20
-40.883800000000001
10
107.10700000000003
20
-54.883099999999999
10
93.10720000000002
20
-54.883099999999999
10
93.10720000000002
20
-40.883800000000001
0
LWPOLYLINE
5
121
100
AcDbEntity
8
0
100
AcDbPolyline
90
4
70
1
43
0.0
10
131.20699999999999
20
-40.883800000000001
10
145.20699999999999
20
-40.883800000000001
10
145.20699999999999
20
-54.883099999999999
10
131.20699999999999
20
-54.883099999999999
0
LWPOLYLINE
5
122
100
AcDbEntity
8
0
100
AcDbPolyline
90
4
70
1
43
0.0
10
88.344700000000017
20
-73.933099999999996
10
88.344700000000017
20
-59.933800000000005
10
102.34400000000001
20
-59.933800000000005
10
102.34400000000001
20
-73.933099999999996
0
LWPOLYLINE
5
123
100
AcDbEntity
8
0
100
AcDbPolyline
90
4
70
1
43
0.0
10
235.69400000000002
20
-73.933099999999996
10
221.69499999999999
20
-73.933099999999996
10
221.69499999999999
20
-59.933800000000005
10
235.69400000000002
20
-59.933800000000005
0
LWPOLYLINE
5
124
100
AcDbEntity
8
0
100
AcDbPolyline
90
4
70
1
43
0.0
10
83.293999999999997
20
-59.933800000000005
10
83.293999999999997
20
-73.933099999999996
10
69.294700000000006
20
-73.933099999999996
10
69.294700000000006
20
-59.933800000000005
0
LWPOLYLINE
5
125
100
AcDbEntity
8
0
100
AcDbPolyline
90
4
70
1
43
0.0
10
240.745
20
-73.933099999999996
10
240.745
20
-59.933800000000005
10
254.74400000000003
20
-59.933800000000005
10
254.74400000000003
20
-73.933099999999996
0
LWPOLYLINE
5
126
100
AcDbEntity
8
0
100
AcDbPolyline
90
4
70
1
43
0.0
10
183.595
20
-59.933800000000005
10
197.59400000000002
20
-59.933800000000005
10
197.59400000000002
20
-73.933099999999996
10
183.595
20
-73.933099999999996
0
LWPOLYLINE
5
127
100
AcDbEntity
8
0
100
AcDbPolyline
90
4
70
1
43
0.0
10
216.64400000000001
20
-59.933800000000005
10
216.64400000000001
20
-73.933099999999996
10
202.64500000000001
20
-73.933099999999996
10
202.64500000000001
20
-59.933800000000005
0
LWPOLYLINE
5
128
100
AcDbEntity
8
0
100
AcDbPolyline
90
4
70
1
43
0.0
10
130.91899999999998
20
-92.983099999999993
10
116.91800000000001
20
-92.983099999999993
10
116.91800000000001
20
-78.983800000000002
10
130.91899999999998
20
-78.983800000000002
0
LWPOLYLINE
5
129
100
AcDbEntity
8
0
100
AcDbPolyline
90
4
70
1
43
0.0
10
97.868300000000019
20
-92.983099999999993
10
97.868300000000019
20
-78.983800000000002
10
111.86900000000001
20
-78.983800000000002
10
111.86900000000001
20
-92.983099999999993
0
LWPOLYLINE
5
130
100
AcDbEntity
8
0
100
AcDbPolyline
90
4
70
1
43
0.0
10
40.719700000000003
20
-78.983800000000002
10
54.718999999999994
20
-78.983800000000002
10
54.718999999999994
20
-92.983099999999993
10
40.719700000000003
20
-92.983099999999993
0
LWPOLYLINE
5
131
100
AcDbEntity
8
0
100
AcDbPolyline
90
4
70
1
43
0.0
10
35.669000000000004
20
-92.983099999999993
10
21.669699999999999
20
-92.983099999999993
10
21.669699999999999
20
-78.983800000000002
10
35.669000000000004
20
-78.983800000000002
0
LWPOLYLINE
5
132
100
AcDbEntity
8
0
100
AcDbPolyline
90
4
70
1
43
0.0
10
73.768999999999991
20
-78.983800000000002
10
73.768999999999991
20
-92.983099999999993
10
59.769700000000007
20
-92.983099999999993
10
59.769700000000007
20
-78.983800000000002
0
LWPOLYLINE
5
133
100
AcDbEntity
8
0
100
AcDbPolyline
90
4
70
1
43
0.0
10
16.619199999999999
20
-92.983099999999993
10
2.61965
20
-92.983099999999993
10
2.61965
20
-78.983800000000002
10
16.619199999999999
20
-78.983800000000002
0
LWPOLYLINE
5
134
100
AcDbEntity
8
0
100
AcDbPolyline
90
4
70
1
43
0.0
10
78.819699999999997
20
-92.983099999999993
10
78.819699999999997
20
-78.983800000000002
10
92.819000000000003
20
-78.983800000000002
10
92.819000000000003
20
-92.983099999999993
0
LWPOLYLINE
5
135
100
AcDbEntity
8
0
100
AcDbPolyline
90
4
70
1
43
0.0
10
149.96899999999999
20
-92.983099999999993
10
135.97000000000003
20
-92.983099999999993
10
135.97000000000003
20
-78.983800000000002
10
149.96899999999999
20
-78.983800000000002
0
LWPOLYLINE
5
136
100
AcDbEntity
8
0
100
AcDbPolyline
90
4
70
1
43
0.0
10
231.22
20
-78.983800000000002
10
245.21900000000002
20
-78.983800000000002
10
245.21900000000002
20
-92.983099999999993
10
231.22
20
-92.983099999999993
0
LWPOLYLINE
5
137
100
AcDbEntity
8
0
100
AcDbPolyline
90
4
70
1
43
0.0
10
188.06900000000002
20
-92.983099999999993
10
174.06999999999999
20
-92.983099999999993
10
174.06999999999999
20
-78.983800000000002
10
188.06900000000002
20
-78.983800000000002
0
LWPOLYLINE
5
138
100
AcDbEntity
8
0
100
AcDbPolyline
90
4
70
1
43
0.0
10
193.12
20
-92.983099999999993
10
193.12
20
-78.983800000000002
10
207.11900000000003
20
-78.983800000000002
10
207.11900000000003
20
-92.983099999999993
0
LWPOLYLINE
5
139
100
AcDbEntity
8
0
100
AcDbPolyline
90
4
70
1
43
0.0
10
312.18200000000002
20
-78.983800000000002
10
326.18200000000002
20
-78.983800000000002
10
326.18200000000002
20
-92.983099999999993
10
312.18200000000002
20
-92.983099999999993
0
LWPOLYLINE
5
140
100
AcDbEntity
8
0
100
AcDbPolyline
90
4
70
1
43
0.0
10
331.23199999999997
20
-78.983800000000002
10
345.23199999999997
20
-78.983800000000002
10
345.23199999999997
20
-92.983099999999993
10
331.23199999999997
20
-92.983099999999993
0
LWPOLYLINE
5
141
100
AcDbEntity
8
0
100
AcDbPolyline
90
4
70
1
43
0.0
10
307.13200000000001
20
-92.983099999999993
10
293.13200000000001
20
-92.983099999999993
10
293.13200000000001
20
-78.983800000000002
10
307.13200000000001
20
-78.983800000000002
0
LWPOLYLINE
5
142
100
AcDbEntity
8
0
100
AcDbPolyline
90
4
70
1
43
0.0
10
155.02000000000004
20
-92.983099999999993
10
155.02000000000004
20
-78.983800000000002
10
169.01900000000001
20
-78.983800000000002
10
169.01900000000001
20
-92.983099999999993
0
LWPOLYLINE
5
143
100
AcDbEntity
8
0
100
AcDbPolyline
90
4
70
1
43
0.0
10
14.5259
20
-35.832999999999998
10
14.5259
20
-21.833600000000001
10
28.525400000000005
20
-21.833600000000001
10
28.525400000000005
20
-35.832999999999998
0
LWPOLYLINE
5
144
100
AcDbEntity
8
0
100
AcDbPolyline
90
4
70
1
43
0.0
10
226.16900000000001
20
-78.983800000000002
10
226.16900000000001
20
-92.983099999999993
10
212.16999999999999
20
-92.983099999999993
10
212.16999999999999
20
-78.983800000000002
0
LWPOLYLINE
5
145
100
AcDbEntity
8
0
100
AcDbPolyline
90
4
70
1
43
0.0
10
13.000400000000001
20
-20.863499999999998
10
13.000400000000001
20
-36.787800000000004
10
5.42533003785638
20
-36.787800000000004
10
5.4253299621436204
20
-20.838499999999996
0
LWPOLYLINE
5
146
100
AcDbEntity
8
0
100
AcDbPolyline
90
4
70
1
43
0.0
10
30.050899999999999
20
-20.863499999999998
10
37.625900000000001
20
-20.863499999999998
10
37.625900000000001
20
-36.802800000000005
10
30.050899999999999
20
-36.802800000000005
0
LWPOLYLINE
5
147
100
AcDbEntity
8
0
100
AcDbPolyline
90
4
70
1
43
0.0
10
196.74400000000006
20
-1.813499999999999
10
204.31900000000002
20
-1.8135000000000001
10
204.31900000000002
20
-17.753800000000002
10
196.74400000000006
20
-17.753799999999998
0
LWPOLYLINE
5
148
100
AcDbEntity
8
0
100
AcDbPolyline
90
4
70
1
43
0.0
10
135.97000000000003
20
-16.783100000000001
10
135.97000000000003
20
-2.7836400000000006
10
149.96899999999999
20
-2.7836400000000006
10
149.96899999999999
20
-16.783100000000001
0
LWPOLYLINE
5
149
100
AcDbEntity
8
0
100
AcDbPolyline
90
4
70
1
43
0.0
10
258.26900000000001
20
-78.013599999999997
10
258.26900000000001
20
-93.953699999999998
10
250.69400000000002
20
-93.953699999999998
10
250.69400000000002
20
-78.013599999999997
0
LWPOLYLINE
5
150
100
AcDbEntity
8
0
100
AcDbPolyline
90
4
70
1
43
0.0
10
259.79500000000002
20
-92.983099999999993
10
259.79500000000002
20
-78.983800000000002
10
273.79400000000004
20
-78.983800000000002
10
273.79400000000004
20
-92.983099999999993
0
LWPOLYLINE
5
151
100
AcDbEntity
8
0
100
AcDbPolyline
90
4
70
1
43
0.0
10
275.31999999999999
20
-78.013599999999997
10
282.89499999999998
20
-78.013599999999997
10
282.89499999999998
20
-93.953699999999998
10
275.31999999999999
20
-93.953699999999998
0
LWPOLYLINE
5
152
100
AcDbEntity
8
0
100
AcDbPolyline
90
4
70
1
43
0.0
10
255.88800000000003
20
-39.99049986163228
10
255.88800000000003
20
-55.853700000000011
10
248.31299999999999
20
-55.853700000000011
10
248.31299999999999
20
-39.99049986163228
0
LWPOLYLINE
5
153
100
AcDbEntity
8
0
100
AcDbPolyline
90
4
70
1
43
0.0
10
272.93700000000001
20
-39.913600000000002
10
280.512
20
-39.913600000000002
10
280.512
20
-55.853700000000011
10
272.93700000000001
20
-55.853700000000011
0
LWPOLYLINE
5
154
100
AcDbEntity
8
0
100
AcDbPolyline
90
2
70
1
43
0.0
10
173.45711296771361
20
-15.630256670952276
42
0.99946761380141758
10
173.45711296771475
20
-3.9364833290477619
0
LWPOLYLINE
5
155
100
AcDbEntity
8
0
100
AcDbPolyline
90
2
70
1
43
0.0
10
112.48188703228637
20
-3.9364833290477619
42
0.99946761380141758
10
112.48188703228524
20
-15.630256670952271
0
LWPOLYLINE
5
156
100
AcDbEntity
8
0
100
AcDbPolyline
90
4
70
1
43
0.0
10
257.41200000000003
20
-54.883099999999999
10
257.41200000000003
20
-40.883800000000001
10
271.41300000000001
20
-40.883800000000001
10
271.41300000000001
20
-54.883099999999999
0
LWPOLYLINE
5
157
100
AcDbEntity
8
0
100
AcDbPolyline
90
4
70
1
43
0.0
10
25.238200000000003
20
-73.933449999999993
10
25.238200000000003
20
-59.933449999999993
10
27.338200000000001
20
-59.933449999999993
10
27.338200000000001
20
-73.933449999999993
0
LWPOLYLINE
5
158
100
AcDbEntity
8
0
100
AcDbPolyline
90
4
70
1
43
0.0
10
28.81005
20
-54.883449999999996
10
28.81005
20
-40.883449999999996
10
30.910049999999998
20
-40.883449999999996
10
30.910049999999998
20
-54.883449999999996
0
LWPOLYLINE
5
159
100
AcDbEntity
8
0
100
AcDbPolyline
90
4
70
1
43
0.0
10
40.504049999999992
20
-35.833300000000001
10
40.504049999999992
20
-21.833299999999998
10
42.604050000000001
20
-21.833299999999998
10
42.604050000000001
20
-35.833300000000001
0
LWPOLYLINE
5
160
100
AcDbEntity
8
0
100
AcDbPolyline
90
4
70
1
43
0.0
10
81.619699999999995
20
-17.75337
10
81.619699999999995
20
-1.8135000000000012
10
89.194900000000018
20
-1.8135000000000012
10
89.194900000000018
20
-17.75337
0
LWPOLYLINE
5
161
100
AcDbEntity
8
0
100
AcDbPolyline
90
4
70
1
43
0.0
10
258.60050000000007
20
-73.933449999999993
10
258.60050000000007
20
-59.933449999999993
10
260.70050000000003
20
-59.933449999999993
10
260.70050000000003
20
-73.933449999999993
0
LWPOLYLINE
5
162
100
AcDbEntity
8
0
100
AcDbPolyline
90
4
70
1
43
0.0
10
243.33499999999998
20
-54.883449999999996
10
243.33499999999998
20
-40.883449999999996
10
245.43499999999997
20
-40.883449999999996
10
245.43499999999997
20
-54.883449999999996
0
LWPOLYLINE
5
163
100
AcDbEntity
8
0
100
AcDbPolyline
90
4
70
1
43
0.0
10
235.97899999999998
20
-35.833300000000001
10
235.97899999999998
20
-21.833299999999998
10
238.07900000000001
20
-21.833299999999998
10
238.07900000000001
20
-35.833300000000001
0
LWPOLYLINE
5
164
100
AcDbEntity
8
0
100
AcDbPolyline
90
4
70
1
43
0.0
10
326.18200000000002
20
-21.833600000000001
10
326.18200000000002
20
-35.832999999999998
10
312.18200000000002
20
-35.832999999999998
10
312.18200000000002
20
-21.833600000000001
0
LWPOLYLINE
5
165
100
AcDbEntity
8
0
100
AcDbPolyline
90
4
70
1
43
0.0
10
135.68200000000002
20
-35.832999999999998
10
121.682
20
-35.832999999999998
10
121.682
20
-21.833600000000001
10
135.68200000000002
20
-21.833600000000001
0
LWPOLYLINE
5
166
100
AcDbEntity
8
0
100
AcDbPolyline
90
4
70
1
43
0.0
10
116.63200000000002
20
-35.832999999999998
10
102.63200000000001
20
-35.832999999999998
10
102.63200000000001
20
-21.833600000000001
10
116.63200000000002
20
-21.833600000000001
0
LWPOLYLINE
5
167
100
AcDbEntity
8
0
100
AcDbPolyline
90
4
70
1
43
0.0
10
211.88200000000001
20
-21.833600000000001
10
211.88200000000001
20
-35.832999999999998
10
197.88200000000003
20
-35.832999999999998
10
197.88200000000003
20
-21.833600000000001
0
LWPOLYLINE
5
168
100
AcDbEntity
8
0
100
AcDbPolyline
90
4
70
1
43
0.0
10
243.126
20
-21.833600000000001
10
257.125
20
-21.833600000000001
10
257.125
20
-35.832999999999998
10
243.126
20
-35.832999999999998
0
LWPOLYLINE
5
169
100
AcDbEntity
8
0
100
AcDbPolyline
90
4
70
1
43
0.0
10
269.32000000000005
20
-21.833600000000001
10
283.31900000000007
20
-21.833600000000001
10
283.31900000000007
20
-35.832999999999998
10
269.32000000000005
20
-35.832999999999998
0
LWPOLYLINE
5
170
100
AcDbEntity
8
0
100
AcDbPolyline
90
4
70
1
43
0.0
10
173.78200000000004
20
-21.833600000000001
10
173.78200000000004
20
-35.832999999999998
10
159.78200000000001
20
-35.832999999999998
10
159.78200000000001
20
-21.833600000000001
0
LWPOLYLINE
5
171
100
AcDbEntity
8
0
100
AcDbPolyline
90
4
70
1
43
0.0
10
192.83199999999999
20
-21.833600000000001
10
192.83199999999999
20
-35.832999999999998
10
178.83199999999999
20
-35.832999999999998
10
178.83199999999999
20
-21.833600000000001
0
LWPOLYLINE
5
172
100
AcDbEntity
8
0
100
AcDbPolyline
90
4
70
1
43
0.0
10
78.531499999999994
20
-35.832999999999998
10
64.532200000000003
20
-35.832999999999998
10
64.532200000000003
20
-21.833600000000001
10
78.531499999999994
20
-21.833600000000001
0
LWPOLYLINE
5
173
100
AcDbEntity
8
0
100
AcDbPolyline
90
4
70
1
43
0.0
10
345.23199999999997
20
-16.783100000000001
10
331.23199999999997
20
-16.783100000000001
10
331.23199999999997
20
-2.7836400000000006
10
345.23199999999997
20
-2.7836400000000006
0
LWPOLYLINE
5
174
100
AcDbEntity
8
0
100
AcDbPolyline
90
4
70
1
43
0.0
10
278.55700000000002
20
-2.7836400000000006
10
278.55700000000002
20
-16.783100000000001
10
264.55700000000002
20
-16.783100000000001
10
264.55700000000002
20
-2.7836400000000006
0
LWPOLYLINE
5
175
100
AcDbEntity
8
0
100
AcDbPolyline
90
4
70
1
43
0.0
10
97.581500000000005
20
-21.833600000000001
10
97.581500000000005
20
-35.832999999999998
10
83.582200000000014
20
-35.832999999999998
10
83.582200000000014
20
-21.833600000000001
0
LWPOLYLINE
5
176
100
AcDbEntity
8
0
100
AcDbPolyline
90
4
70
1
43
0.0
10
254.74400000000003
20
-2.7836400000000006
10
254.74400000000003
20
-16.783100000000001
10
240.745
20
-16.783100000000001
10
240.745
20
-2.7836400000000006
0
LWPOLYLINE
5
177
100
AcDbEntity
8
0
100
AcDbPolyline
90
4
70
1
43
0.0
10
326.18200000000002
20
-2.7836400000000006
10
326.18200000000002
20
-16.783100000000001
10
312.18200000000002
20
-16.783100000000001
10
312.18200000000002
20
-2.7836400000000006
0
LWPOLYLINE
5
178
100
AcDbEntity
8
0
100
AcDbPolyline
90
4
70
1
43
0.0
10
45.482199999999999
20
-35.832999999999998
10
45.482199999999999
20
-21.833600000000001
10
59.481499999999997
20
-21.833600000000001
10
59.481499999999997
20
-35.832999999999998
0
LWPOLYLINE
5
179
100
AcDbEntity
8
0
100
AcDbPolyline
90
4
70
1
43
0.0
10
188.357
20
-54.883099999999999
10
188.357
20
-40.883800000000001
10
202.35700000000003
20
-40.883800000000001
10
202.35700000000003
20
-54.883099999999999
0
LWPOLYLINE
5
180
100
AcDbEntity
8
0
100
AcDbPolyline
90
4
70
1
43
0.0
10
140.732
20
-21.833600000000001
10
154.732
20
-21.833600000000001
10
154.732
20
-35.832999999999998
10
140.732
20
-35.832999999999998
0
LWPOLYLINE
5
181
100
AcDbEntity
8
0
100
AcDbPolyline
90
4
70
1
43
0.0
10
21.381700000000002
20
-73.933099999999996
10
7.3821599999999998
20
-73.933099999999996
10
7.3821599999999998
20
-59.933800000000005
10
21.381700000000002
20
-59.933800000000005
0
LWPOLYLINE
5
182
100
AcDbEntity
8
0
100
AcDbPolyline
90
4
70
1
43
0.0
10
230.93200000000002
20
-35.832999999999998
10
216.93200000000004
20
-35.832999999999998
10
216.93200000000004
20
-21.833600000000001
10
230.93200000000002
20
-21.833600000000001
0
LWPOLYLINE
5
183
100
AcDbEntity
8
0
100
AcDbPolyline
90
4
70
1
43
0.0
10
293.13200000000001
20
-2.7836400000000001
10
307.13200000000001
20
-2.7836400000000006
10
307.13200000000001
20
-16.783100000000001
10
293.13200000000001
20
-16.783100000000001
0
LWPOLYLINE
5
184
100
AcDbEntity
8
0
100
AcDbPolyline
90
4
70
1
43
0.0
10
216.93200000000004
20
-2.7836400000000001
10
230.93200000000002
20
-2.7836400000000006
10
230.93200000000002
20
-16.783100000000001
10
216.93200000000004
20
-16.783100000000001
0
LWPOLYLINE
5
185
100
AcDbEntity
8
0
100
AcDbPolyline
90
4
70
1
43
0.0
10
7.3821600000000007
20
-16.783100000000001
10
7.3821599999999998
20
-2.7836400000000006
10
21.381700000000002
20
-2.7836400000000006
10
21.381700000000002
20
-16.783100000000001
0
LWPOLYLINE
5
186
100
AcDbEntity
8
0
100
AcDbPolyline
90
4
70
1
43
0.0
10
69.006500000000003
20
-16.783100000000001
10
55.007200000000005
20
-16.783100000000001
10
55.007200000000005
20
-2.7836400000000006
10
69.006500000000003
20
-2.7836400000000006
0
LWPOLYLINE
5
187
100
AcDbEntity
8
0
100
AcDbPolyline
90
4
70
1
43
0.0
10
31.194700000000001
20
-16.783100000000001
10
31.194700000000001
20
-2.7836400000000006
10
45.194000000000003
20
-2.7836400000000006
10
45.194000000000003
20
-16.783100000000001
0
LWPOLYLINE
5
188
100
AcDbEntity
8
0
100
AcDbPolyline
90
88
70
1
43
0.0
10
0.095084600000000019
20
-95.507499999999993
10
15.237985562499999
20
-95.507499999999993
42
-0.41421356237310442
10
16.4879855625
20
-96.757499999999993
10
16.487985562499993
20
-99.107499999999987
42
0.41421356237309875
10
17.887985562500035
20
-100.50750000000001
10
17.887985562499999
20
-97.53249999999997
42
-0.41421356237309764
10
18.887985562500006
20
-96.532499999999985
10
19.087985562499973
20
-96.532499999999985
42
-0.41421356237309764
10
20.087985562499977
20
-97.53249999999997
10
20.087985562499945
20
-100.50750000000001
42
0.41421356237309875
10
21.487985562499986
20
-99.107499999999987
10
21.487985562499972
20
-96.757499999999993
42
-0.41421356237310442
10
22.737985562499979
20
-95.507499999999993
10
118.52959903749999
20
-95.507499999999993
42
-0.4142135623730992
10
119.77959903749998
20
-96.757499999999993
10
119.77959903749999
20
-99.107499999999987
42
0.41421356237309503
10
121.1795990375
20
-100.50750000000001
10
121.1795990375
20
-97.53249999999997
42
-0.4142135623730846
10
122.17959903749998
20
-96.532499999999999
10
122.37959903749997
20
-96.532499999999985
42
-0.41421356237309503
10
123.37959903749997
20
-97.53249999999997
10
123.37959903749996
20
-100.50750000000001
42
0.41421356237309503
10
124.77959903749996
20
-99.107499999999987
10
124.77959903749998
20
-96.757499999999993
42
-0.41421356237309503
10
126.02959903749996
20
-95.507499999999965
10
221.82259903750003
20
-95.507499999999993
42
-0.41421356237307838
10
223.07259903750003
20
-96.757499999999993
10
223.07259903750003
20
-99.107499999999987
42
0.41421356237309503
10
224.4725990375
20
-100.50750000000001
10
224.4725990375
20
-97.53249999999997
42
-0.41421356237309503
10
225.4725990375
20
-96.532499999999999
10
225.67259903749999
20
-96.532499999999999
42
-0.41421356237310542
10
226.67259903749999
20
-97.53249999999997
10
226.67259903749994
20
-100.50749999999999
42
0.41421356237310253
10
228.07259903749997
20
-99.107499999999987
10
228.07259903749994
20
-96.757499999999993
42
-0.41421356237309503
10
229.32259903749994
20
-95.507500000000007
10
325.1145990375
20
-95.507499999999965
42
-0.4142135623730992
10
326.3645990375
20
-96.757499999999993
10
326.3645990375
20
-99.107499999999987
42
0.41421356237309503
10
327.76459903750003
20
-100.50750000000001
10
327.76459903749992
20
-97.53249999999997
42
-0.41421356237312623
10
328.76459903750003
20
-96.53249999999997
10
328.96459903750008
20
-96.532500000000027
42
-0.41421356237307422
10
329.96459903750008
20
-97.53249999999997
10
329.96459903750002
20
-100.50749999999999
42
0.41421356237309503
10
331.3645990375
20
-99.107499999999987
10
331.3645990375
20
-96.757499999999993
42
-0.4142135623730992
10
332.6145990375
20
-95.507499999999965
10
347.75800000000004
20
-95.507499999999993
10
347.75800000000004
20
-0.25769300000000328
10
332.6145990375
20
-0.2576930000000241
42
-0.41421356237309992
10
331.3645990375
20
0.99230699999999672
10
331.3645990375
20
3.342306999999991
42
0.41421356237309503
10
329.96459903750002
20
4.7423070000000145
10
329.96459903750008
20
1.7673069999999846
42
-0.41421356237311741
10
328.96459903750008
20
0.76730700000004148
10
328.76459903750003
20
0.76730699999999541
42
-0.41421356237304613
10
327.76459903750003
20
1.7673069999999846
10
327.76459903750003
20
4.7423070000000145
42
0.41421356237309503
10
326.3645990375
20
3.342306999999991
10
326.3645990375
20
0.99230699999999683
42
-0.41421356237309948
10
325.1145990375
20
-0.25769300000002104
10
177.67609903749999
20
-0.25769299999998857
42
-0.41421356237310825
10
176.42609903749999
20
0.99230699999999672
10
176.42609903749999
20
3.342306999999991
42
0.41421356237309503
10
175.02609903749999
20
4.7423070000000145
10
175.02609903749999
20
1.7673069999999846
42
-0.41421356237309925
10
174.02609903750002
20
0.76730700000000596
10
173.8260990375
20
0.76730700000000573
42
-0.41421356237310558
10
172.8260990375
20
1.7673069999999846
10
172.82609903750003
20
4.7423070000000145
42
0.41421356237309503
10
171.42609903750002
20
3.342306999999991
10
171.42609903750002
20
0.99230699999999694
42
-0.41421356237308826
10
170.17609903750008
20
-0.25769300000002093
10
22.737985562499983
20
-0.25769300000000617
42
-0.41421356237310408
10
21.487985562499972
20
0.99230699999999672
10
21.487985562499983
20
3.342306999999991
42
0.41421356237309875
10
20.087985562499941
20
4.7423070000000145
10
20.087985562499977
20
1.7673069999999846
42
-0.41421356237309664
10
19.087985562499973
20
0.76730699999998819
10
18.887985562500006
20
0.7673069999999893
42
-0.41421356237309664
10
17.887985562500003
20
1.7673069999999846
10
17.887985562500003
20
4.7423070000000145
42
0.41421356237309176
10
16.487985562499993
20
3.342306999999991
10
16.487985562500004
20
0.99230699999999683
42
-0.41421356237310564
10
15.237985562499999
20
-0.2576930000000055
10
0.095084599999992747
20
-0.25769300000000001
0
ENDSEC
0
SECTION
2
OBJECTS
0
DICTIONARY
5
C
100
AcDbDictionary
3
ACAD_GROUP
350
D
3
ACAD_MLINESTYLE
350
17
0
DICTIONARY
5
D
100
AcDbDictionary
0
DICTIONARY
5
1A
330
C
100
AcDbDictionary
0
DICTIONARY
5
17
100
AcDbDictionary
0
ENDSEC
0
EOF
