0
SECTION
2
HEADER
9
$INSUNITS
70
4
9
$ACADVER
1
AC1014
9
$HANDSEED
5
FFFF
0
ENDSEC
0
SECTION
2
TABLES
0
TABLE
2
VPORT
5
8
100
AcDbSymbolTable
0
ENDTAB
0
TABLE
2
LTYPE
5
5
100
AcDbSymbolTable
0
LTYPE
5
14
100
AcDbSymbolTableRecord
100
AcDbLinetypeTableRecord
2
BYBLOCK
70
0
0
LTYPE
5
15
100
AcDbSymbolTableRecord
100
AcDbLinetypeTableRecord
2
BYLAYER
70
0
0
ENDTAB
0
TABLE
2
LAYER
5
2
100
AcDbSymbolTable
70
2
0
LAYER
5
50
100
AcDbSymbolTableRecord
100
AcDbLayerTableRecord
2
0
70
0
6
CONTINUOUS
0
ENDTAB
0
TABLE
2
STYLE
5
3
100
AcDbSymbolTable
70
1
0
STYLE
5
11
100
AcDbSymbolTableRecord
100
AcDbTextStyleTableRecord
2
STANDARD
70
0
0
ENDTAB
0
TABLE
2
VIEW
5
6
100
AcDbSymbolTable
70
0
0
ENDTAB
0
TABLE
2
UCS
5
7
100
AcDbSymbolTable
70
0
0
ENDTAB
0
TABLE
2
APPID
5
9
100
AcDbSymbolTable
70
2
0
APPID
5
12
100
AcDbSymbolTableRecord
100
AcDbRegAppTableRecord
2
ACAD
70
0
0
ENDTAB
0
TABLE
2
DIMSTYLE
5
A
100
AcDbSymbolTable
70
1
0
ENDTAB
0
TABLE
2
BLOCK_RECORD
5
1
100
AcDbSymbolTable
70
1
0
BLOCK_RECORD
5
1F
100
AcDbSymbolTableRecord
100
AcDbBlockTableRecord
2
*MODEL_SPACE
0
BLOCK_RECORD
5
1B
100
AcDbSymbolTableRecord
100
AcDbBlockTableRecord
2
*PAPER_SPACE
0
ENDTAB
0
ENDSEC
0
SECTION
2
BLOCKS
0
BLOCK
5
20
100
AcDbEntity
100
AcDbBlockBegin
2
*MODEL_SPACE
0
ENDBLK
5
21
100
AcDbEntity
100
AcDbBlockEnd
0
BLOCK
5
1C
100
AcDbEntity
100
AcDbBlockBegin
2
*PAPER_SPACE
0
ENDBLK
5
1D
100
AcDbEntity
100
AcDbBlockEnd
0
ENDSEC
0
SECTION
2
ENTITIES
0
LWPOLYLINE
5
100
100
AcDbEntity
8
0
100
AcDbPolyline
90
4
70
1
43
0.0
10
55.007200000000012
20
16.705328397371289
10
69.006499999999988
20
16.705328397371289
10
69.006499999999988
20
2.7058683973712894
10
55.007200000000012
20
2.7058683973712889
0
LWPOLYLINE
5
101
100
AcDbEntity
8
0
100
AcDbPolyline
90
4
70
1
43
0.0
10
7.3821600000000132
20
2.7058683973712894
10
7.3821600000000132
20
16.705328397371289
10
21.381699999999988
20
16.705328397371289
10
21.381699999999988
20
2.7058683973712894
0
LWPOLYLINE
5
102
100
AcDbEntity
8
0
100
AcDbPolyline
90
4
70
1
43
0.0
10
31.194699999999997
20
2.7058683973712894
10
31.194699999999997
20
16.705328397371289
10
45.19400000000001
20
16.705328397371289
10
45.19400000000001
20
2.7058683973712894
0
LWPOLYLINE
5
103
100
AcDbEntity
8
0
100
AcDbPolyline
90
4
70
1
43
0.0
10
254.74400000000003
20
16.705328397371289
10
254.74400000000003
20
2.7058683973712894
10
240.745
20
2.7058683973712889
10
240.745
20
16.705328397371289
0
LWPOLYLINE
5
104
100
AcDbEntity
8
0
100
AcDbPolyline
90
4
70
1
43
0.0
10
135.97000000000003
20
92.905328397371264
10
149.96899999999999
20
92.905328397371264
10
149.96899999999999
20
78.906028397371301
10
135.97000000000003
20
78.906028397371287
0
LWPOLYLINE
5
105
100
AcDbEntity
8
0
100
AcDbPolyline
90
4
70
1
43
0.0
10
78.819699999999983
20
78.906028397371287
10
78.819699999999983
20
92.90532839737125
10
92.819000000000003
20
92.905328397371264
10
92.819000000000003
20
78.906028397371301
0
LWPOLYLINE
5
106
100
AcDbEntity
8
0
100
AcDbPolyline
90
4
70
1
43
0.0
10
245.21900000000002
20
78.906028397371287
10
231.22
20
78.906028397371287
10
231.22
20
92.90532839737125
10
245.21900000000002
20
92.905328397371264
0
LWPOLYLINE
5
107
100
AcDbEntity
8
0
100
AcDbPolyline
90
4
70
1
43
0.0
10
2.61965
20
92.905328397371264
10
16.619199999999985
20
92.905328397371264
10
16.619199999999985
20
78.906028397371301
10
2.61965
20
78.906028397371287
0
LWPOLYLINE
5
108
100
AcDbEntity
8
0
100
AcDbPolyline
90
4
70
1
43
0.0
10
174.06999999999999
20
92.905328397371264
10
188.06900000000002
20
92.905328397371264
10
188.06900000000002
20
78.906028397371301
10
174.06999999999999
20
78.906028397371287
0
LWPOLYLINE
5
109
100
AcDbEntity
8
0
100
AcDbPolyline
90
4
70
1
43
0.0
10
73.768999999999991
20
92.905328397371264
10
73.768999999999991
20
78.906028397371301
10
59.769700000000014
20
78.906028397371287
10
59.769700000000014
20
92.90532839737125
0
LWPOLYLINE
5
110
100
AcDbEntity
8
0
100
AcDbPolyline
90
4
70
1
43
0.0
10
21.669699999999992
20
92.905328397371264
10
35.669000000000004
20
92.905328397371264
10
35.669000000000004
20
78.906028397371301
10
21.669699999999992
20
78.906028397371287
0
LWPOLYLINE
5
111
100
AcDbEntity
8
0
100
AcDbPolyline
90
4
70
1
43
0.0
10
54.71899999999998
20
78.906028397371287
10
40.719700000000003
20
78.906028397371287
10
40.719700000000003
20
92.90532839737125
10
54.71899999999998
20
92.905328397371264
0
LWPOLYLINE
5
112
100
AcDbEntity
8
0
100
AcDbPolyline
90
4
70
1
43
0.0
10
74.057199999999995
20
54.805328397371291
10
88.0565
20
54.805328397371291
10
88.0565
20
40.806028397371286
10
74.057199999999995
20
40.806028397371286
0
LWPOLYLINE
5
113
100
AcDbEntity
8
0
100
AcDbPolyline
90
4
70
1
43
0.0
10
164.25700000000003
20
40.806028397371286
10
150.25700000000001
20
40.806028397371286
10
150.25700000000001
20
54.805328397371291
10
164.25700000000003
20
54.805328397371291
0
LWPOLYLINE
5
114
100
AcDbEntity
8
0
100
AcDbPolyline
90
4
70
1
43
0.0
10
312.18200000000002
20
59.85602839737129
10
312.18200000000002
20
73.855328397371281
10
326.18200000000002
20
73.855328397371281
10
326.18200000000002
20
59.85602839737129
0
LWPOLYLINE
5
115
100
AcDbEntity
8
0
100
AcDbPolyline
90
4
70
1
43
0.0
10
293.13200000000001
20
73.855328397371281
10
307.13200000000001
20
73.855328397371281
10
307.13200000000001
20
59.85602839737129
10
293.13200000000001
20
59.85602839737129
0
LWPOLYLINE
5
116
100
AcDbEntity
8
0
100
AcDbPolyline
90
4
70
1
43
0.0
10
178.54400000000001
20
59.85602839737129
10
164.54499999999999
20
59.85602839737129
10
164.54499999999999
20
73.855328397371281
10
178.54400000000001
20
73.855328397371281
0
LWPOLYLINE
5
117
100
AcDbEntity
8
0
100
AcDbPolyline
90
4
70
1
43
0.0
10
159.494
20
59.85602839737129
10
145.495
20
59.85602839737129
10
145.495
20
73.855328397371281
10
159.494
20
73.855328397371281
0
LWPOLYLINE
5
118
100
AcDbEntity
8
0
100
AcDbPolyline
90
4
70
1
43
0.0
10
140.44399999999999
20
73.855328397371281
10
140.44399999999999
20
59.85602839737129
10
126.44500000000001
20
59.85602839737129
10
126.44500000000001
20
73.855328397371281
0
LWPOLYLINE
5
119
100
AcDbEntity
8
0
100
AcDbPolyline
90
4
70
1
43
0.0
10
50.244700000000009
20
59.85602839737129
10
50.244700000000009
20
73.855328397371281
10
64.243999999999986
20
73.855328397371281
10
64.243999999999986
20
59.85602839737129
0
LWPOLYLINE
5
120
100
AcDbEntity
8
0
100
AcDbPolyline
90
4
70
1
43
0.0
10
345.23199999999997
20
59.85602839737129
10
331.23199999999997
20
59.85602839737129
10
331.23199999999997
20
73.855328397371281
10
345.23199999999997
20
73.855328397371281
0
LWPOLYLINE
5
121
100
AcDbEntity
8
0
100
AcDbPolyline
90
4
70
1
43
0.0
10
45.19400000000001
20
59.85602839737129
10
31.194699999999997
20
59.85602839737129
10
31.194699999999997
20
73.855328397371281
10
45.19400000000001
20
73.855328397371281
0
LWPOLYLINE
5
122
100
AcDbEntity
8
0
100
AcDbPolyline
90
4
70
1
43
0.0
10
107.395
20
73.855328397371281
10
121.39400000000002
20
73.855328397371281
10
121.39400000000002
20
59.85602839737129
10
107.395
20
59.85602839737129
0
LWPOLYLINE
5
123
100
AcDbEntity
8
0
100
AcDbPolyline
90
4
70
1
43
0.0
10
278.55700000000002
20
59.85602839737129
10
264.55700000000002
20
59.85602839737129
10
264.55700000000002
20
73.855328397371281
10
278.55700000000002
20
73.855328397371281
0
LWPOLYLINE
5
124
100
AcDbEntity
8
0
100
AcDbPolyline
90
4
70
1
43
0.0
10
88.344700000000032
20
59.85602839737129
10
88.344700000000032
20
73.855328397371281
10
102.34400000000001
20
73.855328397371281
10
102.34400000000001
20
59.85602839737129
0
LWPOLYLINE
5
125
100
AcDbEntity
8
0
100
AcDbPolyline
90
4
70
1
43
0.0
10
221.69499999999999
20
73.855328397371281
10
235.69400000000002
20
73.855328397371281
10
235.69400000000002
20
59.85602839737129
10
221.69499999999999
20
59.85602839737129
0
LWPOLYLINE
5
126
100
AcDbEntity
8
0
100
AcDbPolyline
90
4
70
1
43
0.0
10
83.293999999999997
20
73.855328397371281
10
83.293999999999997
20
59.85602839737129
10
69.29470000000002
20
59.85602839737129
10
69.29470000000002
20
73.855328397371281
0
LWPOLYLINE
5
127
100
AcDbEntity
8
0
100
AcDbPolyline
90
4
70
1
43
0.0
10
240.745
20
59.85602839737129
10
240.745
20
73.855328397371281
10
254.74400000000003
20
73.855328397371281
10
254.74400000000003
20
59.85602839737129
0
LWPOLYLINE
5
128
100
AcDbEntity
8
0
100
AcDbPolyline
90
4
70
1
43
0.0
10
197.59400000000002
20
59.85602839737129
10
183.595
20
59.85602839737129
10
183.595
20
73.855328397371281
10
197.59400000000002
20
73.855328397371281
0
LWPOLYLINE
5
129
100
AcDbEntity
8
0
100
AcDbPolyline
90
4
70
1
43
0.0
10
216.64400000000001
20
73.855328397371281
10
216.64400000000001
20
59.85602839737129
10
202.64500000000001
20
59.85602839737129
10
202.64500000000001
20
73.855328397371281
0
LWPOLYLINE
5
130
100
AcDbEntity
8
0
100
AcDbPolyline
90
4
70
1
43
0.0
10
97.868300000000019
20
78.906028397371287
10
97.868300000000019
20
92.90532839737125
10
111.86900000000001
20
92.905328397371264
10
111.86900000000001
20
78.906028397371301
0
LWPOLYLINE
5
131
100
AcDbEntity
8
0
100
AcDbPolyline
90
4
70
1
43
0.0
10
116.91800000000001
20
92.905328397371264
10
130.91899999999998
20
92.905328397371264
10
130.91899999999998
20
78.906028397371301
10
116.91800000000001
20
78.906028397371287
0
LWPOLYLINE
5
132
100
AcDbEntity
8
0
100
AcDbPolyline
90
4
70
1
43
0.0
10
49.956500000000013
20
40.806028397371286
10
35.9572
20
40.806028397371286
10
35.9572
20
54.805328397371291
10
49.956500000000013
20
54.805328397371291
0
LWPOLYLINE
5
133
100
AcDbEntity
8
0
100
AcDbPolyline
90
4
70
1
43
0.0
10
226.45700000000002
20
54.805328397371291
10
240.45699999999999
20
54.805328397371291
10
240.45699999999999
20
40.806028397371286
10
226.45700000000002
20
40.806028397371286
0
LWPOLYLINE
5
134
100
AcDbEntity
8
0
100
AcDbPolyline
90
4
70
1
43
0.0
10
169.30700000000002
20
54.805328397371291
10
183.30700000000004
20
54.805328397371291
10
183.30700000000004
20
40.806028397371286
10
169.30700000000002
20
40.806028397371286
0
LWPOLYLINE
5
135
100
AcDbEntity
8
0
100
AcDbPolyline
90
4
70
1
43
0.0
10
112.15700000000001
20
40.806028397371286
10
112.15700000000001
20
54.805328397371291
10
126.15700000000004
20
54.805328397371291
10
126.15700000000004
20
40.806028397371286
0
LWPOLYLINE
5
136
100
AcDbEntity
8
0
100
AcDbPolyline
90
4
70
1
43
0.0
10
207.40700000000004
20
54.805328397371291
10
221.40700000000004
20
54.805328397371291
10
221.40700000000004
20
40.806028397371286
10
207.40700000000004
20
40.806028397371286
0
LWPOLYLINE
5
137
100
AcDbEntity
8
0
100
AcDbPolyline
90
4
70
1
43
0.0
10
55.007200000000012
20
40.806028397371286
10
55.007200000000012
20
54.805328397371291
10
69.006499999999988
20
54.805328397371291
10
69.006499999999988
20
40.806028397371286
0
LWPOLYLINE
5
138
100
AcDbEntity
8
0
100
AcDbPolyline
90
4
70
1
43
0.0
10
9.7620300000000171
20
54.805328397371291
10
23.762900000000009
20
54.805328397371291
10
23.762900000000009
20
40.806028397371286
10
9.7620300000000171
20
40.806028397371286
0
LWPOLYLINE
5
139
100
AcDbEntity
8
0
100
AcDbPolyline
90
4
70
1
43
0.0
10
107.10700000000003
20
54.805328397371291
10
107.10700000000003
20
40.806028397371286
10
93.107200000000034
20
40.806028397371286
10
93.107200000000034
20
54.805328397371291
0
LWPOLYLINE
5
140
100
AcDbEntity
8
0
100
AcDbPolyline
90
4
70
1
43
0.0
10
230.93200000000002
20
2.7058683973712894
10
216.93200000000004
20
2.7058683973712889
10
216.93200000000004
20
16.705328397371289
10
230.93200000000002
20
16.705328397371289
0
LWPOLYLINE
5
141
100
AcDbEntity
8
0
100
AcDbPolyline
90
4
70
1
43
0.0
10
193.12
20
78.906028397371287
10
193.12
20
92.90532839737125
10
207.11900000000003
20
92.905328397371264
10
207.11900000000003
20
78.906028397371301
0
LWPOLYLINE
5
142
100
AcDbEntity
8
0
100
AcDbPolyline
90
4
70
1
43
0.0
10
326.18200000000002
20
78.906028397371287
10
312.18200000000002
20
78.906028397371287
10
312.18200000000002
20
92.90532839737125
10
326.18200000000002
20
92.905328397371264
0
LWPOLYLINE
5
143
100
AcDbEntity
8
0
100
AcDbPolyline
90
4
70
1
43
0.0
10
345.23199999999997
20
78.906028397371287
10
331.23199999999997
20
78.906028397371287
10
331.23199999999997
20
92.90532839737125
10
345.23199999999997
20
92.905328397371264
0
LWPOLYLINE
5
144
100
AcDbEntity
8
0
100
AcDbPolyline
90
4
70
1
43
0.0
10
293.13200000000001
20
92.905328397371264
10
307.13200000000001
20
92.905328397371264
10
307.13200000000001
20
78.906028397371301
10
293.13200000000001
20
78.906028397371287
0
LWPOLYLINE
5
145
100
AcDbEntity
8
0
100
AcDbPolyline
90
4
70
1
43
0.0
10
155.02000000000004
20
78.906028397371287
10
155.02000000000004
20
92.90532839737125
10
169.01900000000001
20
92.905328397371264
10
169.01900000000001
20
78.906028397371301
0
LWPOLYLINE
5
146
100
AcDbEntity
8
0
100
AcDbPolyline
90
4
70
1
43
0.0
10
14.525900000000007
20
21.755828397371285
10
14.525900000000007
20
35.755228397371283
10
28.525400000000012
20
35.755228397371283
10
28.525400000000012
20
21.755828397371282
0
LWPOLYLINE
5
147
100
AcDbEntity
8
0
100
AcDbPolyline
90
4
70
1
43
0.0
10
226.16900000000001
20
92.905328397371264
10
226.16900000000001
20
78.906028397371301
10
212.16999999999999
20
78.906028397371287
10
212.16999999999999
20
92.90532839737125
0
LWPOLYLINE
5
148
100
AcDbEntity
8
0
100
AcDbPolyline
90
4
70
1
43
0.0
10
13.000399999999992
20
36.710028397371282
10
13.000399999999992
20
20.78572839737128
10
5.4253299621436213
20
20.760728397371281
10
5.4253300378563907
20
36.710028397371282
0
LWPOLYLINE
5
149
100
AcDbEntity
8
0
100
AcDbPolyline
90
4
70
1
43
0.0
10
37.625899999999994
20
20.78572839737128
10
30.050899999999992
20
20.78572839737128
10
30.050899999999992
20
36.725028397371283
10
37.625899999999994
20
36.725028397371283
0
LWPOLYLINE
5
150
100
AcDbEntity
8
0
100
AcDbPolyline
90
4
70
1
43
0.0
10
204.31900000000002
20
1.7357283973712891
10
196.74400000000006
20
1.735728397371288
10
196.74400000000006
20
17.67602839737129
10
204.31900000000002
20
17.676028397371287
0
LWPOLYLINE
5
151
100
AcDbEntity
8
0
100
AcDbPolyline
90
4
70
1
43
0.0
10
258.26900000000001
20
93.875928397371268
10
258.26900000000001
20
77.935828397371282
10
250.69400000000002
20
77.935828397371282
10
250.69400000000002
20
93.875928397371268
0
LWPOLYLINE
5
152
100
AcDbEntity
8
0
100
AcDbPolyline
90
4
70
1
43
0.0
10
259.79500000000002
20
78.906028397371287
10
259.79500000000002
20
92.90532839737125
10
273.79400000000004
20
92.905328397371264
10
273.79400000000004
20
78.906028397371301
0
LWPOLYLINE
5
153
100
AcDbEntity
8
0
100
AcDbPolyline
90
4
70
1
43
0.0
10
282.89499999999998
20
77.935828397371282
10
275.31999999999999
20
77.935828397371282
10
275.31999999999999
20
93.875928397371268
10
282.89499999999998
20
93.875928397371268
0
LWPOLYLINE
5
154
100
AcDbEntity
8
0
100
AcDbPolyline
90
4
70
1
43
0.0
10
255.88800000000003
20
55.775928397371295
10
255.88800000000003
20
39.912728259003558
10
248.31299999999999
20
39.912728259003565
10
248.31299999999999
20
55.775928397371302
0
LWPOLYLINE
5
155
100
AcDbEntity
8
0
100
AcDbPolyline
90
4
70
1
43
0.0
10
280.512
20
39.835828397371287
10
272.93700000000001
20
39.835828397371287
10
272.93700000000001
20
55.775928397371295
10
280.512
20
55.775928397371295
0
LWPOLYLINE
5
156
100
AcDbEntity
8
0
100
AcDbPolyline
90
4
70
1
43
0.0
10
257.41200000000003
20
40.806028397371286
10
257.41200000000003
20
54.805328397371291
10
271.41300000000001
20
54.805328397371291
10
271.41300000000001
20
40.806028397371286
0
LWPOLYLINE
5
157
100
AcDbEntity
8
0
100
AcDbPolyline
90
4
70
1
43
0.0
10
25.238200000000006
20
59.855678397371285
10
25.238200000000006
20
73.855678397371292
10
27.338200000000015
20
73.855678397371292
10
27.338200000000015
20
59.855678397371285
0
LWPOLYLINE
5
158
100
AcDbEntity
8
0
100
AcDbPolyline
90
4
70
1
43
0.0
10
28.810050000000018
20
40.805678397371281
10
28.810050000000018
20
54.805678397371295
10
30.910049999999991
20
54.805678397371281
10
30.910049999999991
20
40.805678397371274
0
LWPOLYLINE
5
159
100
AcDbEntity
8
0
100
AcDbPolyline
90
4
70
1
43
0.0
10
40.504049999999978
20
21.755528397371286
10
40.504049999999978
20
35.755528397371286
10
42.604049999999987
20
35.755528397371286
10
42.604049999999987
20
21.755528397371286
0
LWPOLYLINE
5
160
100
AcDbEntity
8
0
100
AcDbPolyline
90
4
70
1
43
0.0
10
81.619699999999995
20
1.7357283973712903
10
81.619699999999995
20
17.675598397371289
10
89.194900000000032
20
17.675598397371289
10
89.194900000000032
20
1.7357283973712878
0
LWPOLYLINE
5
161
100
AcDbEntity
8
0
100
AcDbPolyline
90
4
70
1
43
0.0
10
258.60050000000007
20
59.855678397371285
10
258.60050000000007
20
73.855678397371292
10
260.70050000000003
20
73.855678397371292
10
260.70050000000003
20
59.855678397371285
0
LWPOLYLINE
5
162
100
AcDbEntity
8
0
100
AcDbPolyline
90
4
70
1
43
0.0
10
243.33499999999998
20
40.805678397371281
10
243.33499999999998
20
54.805678397371295
10
245.43499999999997
20
54.805678397371281
10
245.43499999999997
20
40.805678397371274
0
LWPOLYLINE
5
163
100
AcDbEntity
8
0
100
AcDbPolyline
90
4
70
1
43
0.0
10
235.97899999999998
20
21.755528397371286
10
235.97899999999998
20
35.755528397371286
10
238.07900000000001
20
35.755528397371286
10
238.07900000000001
20
21.755528397371286
0
LWPOLYLINE
5
164
100
AcDbEntity
8
0
100
AcDbPolyline
90
4
70
1
43
0.0
10
188.357
20
40.806028397371286
10
188.357
20
54.805328397371291
10
202.35700000000003
20
54.805328397371291
10
202.35700000000003
20
40.806028397371286
0
LWPOLYLINE
5
165
100
AcDbEntity
8
0
100
AcDbPolyline
90
4
70
1
43
0.0
10
145.20699999999999
20
40.806028397371286
10
131.20699999999999
20
40.806028397371286
10
131.20699999999999
20
54.805328397371291
10
145.20699999999999
20
54.805328397371291
0
LWPOLYLINE
5
166
100
AcDbEntity
8
0
100
AcDbPolyline
90
4
70
1
43
0.0
10
326.18200000000002
20
16.705328397371289
10
326.18200000000002
20
2.7058683973712894
10
312.18200000000002
20
2.7058683973712889
10
312.18200000000002
20
16.705328397371289
0
LWPOLYLINE
5
167
100
AcDbEntity
8
0
100
AcDbPolyline
90
4
70
1
43
0.0
10
278.55700000000002
20
16.705328397371289
10
278.55700000000002
20
2.7058683973712894
10
264.55700000000002
20
2.7058683973712889
10
264.55700000000002
20
16.705328397371289
0
LWPOLYLINE
5
168
100
AcDbEntity
8
0
100
AcDbPolyline
90
4
70
1
43
0.0
10
331.23199999999997
20
16.705328397371289
10
345.23199999999997
20
16.705328397371289
10
345.23199999999997
20
2.7058683973712894
10
331.23199999999997
20
2.7058683973712889
0
LWPOLYLINE
5
169
100
AcDbEntity
8
0
100
AcDbPolyline
90
4
70
1
43
0.0
10
64.532200000000017
20
35.755228397371283
10
78.531499999999994
20
35.755228397371283
10
78.531499999999994
20
21.755828397371282
10
64.532200000000017
20
21.755828397371285
0
LWPOLYLINE
5
170
100
AcDbEntity
8
0
100
AcDbPolyline
90
4
70
1
43
0.0
10
192.83199999999999
20
35.755228397371283
10
192.83199999999999
20
21.755828397371282
10
178.83199999999999
20
21.755828397371285
10
178.83199999999999
20
35.755228397371283
0
LWPOLYLINE
5
171
100
AcDbEntity
8
0
100
AcDbPolyline
90
4
70
1
43
0.0
10
173.78200000000004
20
35.755228397371283
10
173.78200000000004
20
21.755828397371282
10
159.78200000000001
20
21.755828397371285
10
159.78200000000001
20
35.755228397371283
0
LWPOLYLINE
5
172
100
AcDbEntity
8
0
100
AcDbPolyline
90
4
70
1
43
0.0
10
283.31900000000007
20
21.755828397371285
10
269.32000000000005
20
21.755828397371285
10
269.32000000000005
20
35.755228397371283
10
283.31900000000007
20
35.755228397371283
0
LWPOLYLINE
5
173
100
AcDbEntity
8
0
100
AcDbPolyline
90
4
70
1
43
0.0
10
257.125
20
21.755828397371285
10
243.126
20
21.755828397371285
10
243.126
20
35.755228397371283
10
257.125
20
35.755228397371283
0
LWPOLYLINE
5
174
100
AcDbEntity
8
0
100
AcDbPolyline
90
4
70
1
43
0.0
10
211.88200000000001
20
35.755228397371283
10
211.88200000000001
20
21.755828397371282
10
197.88200000000003
20
21.755828397371285
10
197.88200000000003
20
35.755228397371283
0
LWPOLYLINE
5
175
100
AcDbEntity
8
0
100
AcDbPolyline
90
4
70
1
43
0.0
10
102.63200000000001
20
35.755228397371283
10
116.63200000000003
20
35.755228397371283
10
116.63200000000003
20
21.755828397371282
10
102.63200000000001
20
21.755828397371285
0
LWPOLYLINE
5
176
100
AcDbEntity
8
0
100
AcDbPolyline
90
4
70
1
43
0.0
10
45.482200000000006
20
21.755828397371285
10
45.482200000000006
20
35.755228397371283
10
59.481499999999983
20
35.755228397371283
10
59.481499999999983
20
21.755828397371282
0
LWPOLYLINE
5
177
100
AcDbEntity
8
0
100
AcDbPolyline
90
4
70
1
43
0.0
10
216.93200000000004
20
35.755228397371283
10
230.93200000000002
20
35.755228397371283
10
230.93200000000002
20
21.755828397371282
10
216.93200000000004
20
21.755828397371285
0
LWPOLYLINE
5
178
100
AcDbEntity
8
0
100
AcDbPolyline
90
4
70
1
43
0.0
10
154.732
20
21.755828397371285
10
140.732
20
21.755828397371285
10
140.732
20
35.755228397371283
10
154.732
20
35.755228397371283
0
LWPOLYLINE
5
179
100
AcDbEntity
8
0
100
AcDbPolyline
90
4
70
1
43
0.0
10
7.3821600000000132
20
73.855328397371281
10
21.381699999999988
20
73.855328397371281
10
21.381699999999988
20
59.85602839737129
10
7.3821600000000132
20
59.85602839737129
0
LWPOLYLINE
5
180
100
AcDbEntity
8
0
100
AcDbPolyline
90
4
70
1
43
0.0
10
121.68199999999999
20
35.755228397371283
10
135.68200000000004
20
35.755228397371283
10
135.68200000000004
20
21.755828397371282
10
121.68199999999999
20
21.755828397371285
0
LWPOLYLINE
5
181
100
AcDbEntity
8
0
100
AcDbPolyline
90
4
70
1
43
0.0
10
326.18200000000002
20
35.755228397371283
10
326.18200000000002
20
21.755828397371282
10
312.18200000000002
20
21.755828397371285
10
312.18200000000002
20
35.755228397371283
0
LWPOLYLINE
5
182
100
AcDbEntity
8
0
100
AcDbPolyline
90
4
70
1
43
0.0
10
97.581500000000005
20
35.755228397371283
10
97.581500000000005
20
21.755828397371282
10
83.582200000000029
20
21.755828397371285
10
83.582200000000029
20
35.755228397371283
0
LWPOLYLINE
5
183
100
AcDbEntity
8
0
100
AcDbPolyline
90
4
70
1
43
0.0
10
307.13200000000001
20
2.7058683973712894
10
293.13200000000001
20
2.7058683973712889
10
293.13200000000001
20
16.705328397371289
10
307.13200000000001
20
16.705328397371289
0
LWPOLYLINE
5
184
100
AcDbEntity
8
0
100
AcDbPolyline
90
8
70
1
43
0.0
10
155.96899999999999
20
16.705328397371289
10
190.7441
20
16.705328397371289
10
191.7441
20
15.705328397371286
10
191.7441
20
3.705868397371288
10
190.7441
20
2.7058683973712934
10
155.96899999999999
20
2.7058683973712929
10
154.96899999999999
20
3.7058683973712925
10
154.96899999999999
20
15.705328397371288
0
LWPOLYLINE
5
185
100
AcDbEntity
8
0
100
AcDbPolyline
90
8
70
1
43
0.0
10
130.97000000000003
20
15.705328397371286
10
130.97000000000003
20
3.7058683973712836
10
129.97000000000003
20
2.7058683973712929
10
95.194899999999976
20
2.7058683973712929
10
94.19489999999999
20
3.7058683973712925
10
94.19489999999999
20
15.705328397371288
10
95.19489999999999
20
16.705328397371289
10
129.97000000000003
20
16.705328397371289
0
LWPOLYLINE
5
186
100
AcDbEntity
8
0
100
AcDbPolyline
90
106
70
1
43
0.0
10
1.095084600000007
20
95.429728397371264
10
0.095084599999999964
20
94.42972839737125
10
0.095084599999992817
20
1.1799213973712952
10
1.095084600000007
20
0.1799213973712889
10
15.237985562499999
20
0.17992139737129431
42
-0.41421356237310392
10
16.487985562500004
20
-1.0700786026287081
10
16.487985562499993
20
-3.4200786026287022
42
0.41421356237309176
10
17.887985562500003
20
-4.8200786026287261
10
17.887985562500003
20
-1.8450786026286941
42
-0.41421356237309692
10
18.887985562500006
20
-0.84507860262869816
10
19.087985562499973
20
-0.84507860262869805
42
-0.41421356237309698
10
20.087985562499977
20
-1.8450786026286945
10
20.087985562499941
20
-4.8200786026287243
42
0.41421356237309875
10
21.487985562499983
20
-3.4200786026287022
10
21.487985562499972
20
-1.0700786026287084
42
-0.41421356237310547
10
22.737985562499983
20
0.17992139737129181
10
134.97
20
0.17992139737128907
10
135.97000000000003
20
1.1799213973712919
10
135.97000000000003
20
16.705328397371286
10
149.96899999999999
20
16.705328397371289
10
149.96899999999999
20
1.179921397371293
10
150.96899999999999
20
0.17992139737128876
10
170.17609903750008
20
0.17992139737130985
42
-0.41421356237309093
10
171.42609903750002
20
-1.0700786026287081
10
171.42609903750002
20
-3.4200786026287022
42
0.41421356237309503
10
172.82609903750003
20
-4.8200786026287084
10
172.82609903750003
20
-1.8450786026286941
42
-0.41421356237309498
10
173.8260990375
20
-0.84507860262869816
10
174.02609903750002
20
-0.84507860262871581
42
-0.41421356237309515
10
175.02609903749999
20
-1.8450786026286947
10
175.02609903749999
20
-4.8200786026287243
42
0.41421356237309503
10
176.42609903749999
20
-3.4200786026287022
10
176.42609903749999
20
-1.0700786026287084
42
-0.41421356237310758
10
177.67609903749999
20
0.17992139737129181
10
325.1145990375
20
0.17992139737130985
42
-0.41421356237309925
10
326.3645990375
20
-1.0700786026287081
10
326.3645990375
20
-3.4200786026287022
42
0.41421356237309503
10
327.76459903750003
20
-4.8200786026287084
10
327.76459903750003
20
-1.8450786026286941
42
-0.41421356237309498
10
328.76459903750003
20
-0.84507860262869816
10
328.96459903750008
20
-0.84507860262875134
42
-0.41421356237309515
10
329.96459903750002
20
-1.8450786026286947
10
329.96459903750002
20
-4.8200786026287243
42
0.41421356237309503
10
331.3645990375
20
-3.4200786026287022
10
331.3645990375
20
-1.0700786026287084
42
-0.41421356237309925
10
332.6145990375
20
0.17992139737129181
10
346.75800000000004
20
0.17992139737128907
10
347.75800000000004
20
1.1799213973712919
10
347.75800000000004
20
47.256117520641503
10
346.75800000000004
20
48.256117520641475
10
292.28200000000004
20
48.256117520641467
10
291.28199999999998
20
49.25611752064146
10
291.28199999999998
20
52.989117520641443
10
292.28200000000004
20
53.989117520641443
10
346.75800000000004
20
53.989117520641429
10
347.75800000000004
20
54.989117520641422
10
347.75800000000004
20
94.429728397371235
10
346.7580000000001
20
95.429728397371264
10
332.6145990375
20
95.42972839737125
42
-0.4142135623730992
10
331.3645990375
20
96.679728397371264
10
331.3645990375
20
99.029728397371258
42
0.41421356237309503
10
329.96459903750002
20
100.42972839737126
10
329.96459903750008
20
97.454728397371255
42
-0.41421356237310025
10
328.96459903750008
20
96.454728397371241
10
328.76459903750003
20
96.454728397371227
42
-0.41421356237309503
10
327.76459903750003
20
97.454728397371241
10
327.76459903750003
20
100.42972839737126
42
0.41421356237309503
10
326.3645990375
20
99.029728397371258
10
326.3645990375
20
96.679728397371264
42
-0.4142135623730992
10
325.1145990375
20
95.429728397371264
10
229.32259903749994
20
95.429728397371292
42
-0.4142135623730992
10
228.07259903749997
20
96.679728397371264
10
228.07259903749997
20
99.029728397371258
42
0.41421356237310253
10
226.67259903749994
20
100.42972839737126
10
226.67259903749999
20
97.454728397371255
42
-0.41421356237310025
10
225.67259903749999
20
96.454728397371241
10
225.4725990375
20
96.454728397371255
42
-0.41421356237309503
10
224.4725990375
20
97.454728397371241
10
224.4725990375
20
100.42972839737126
42
0.41421356237309503
10
223.07259903750003
20
99.029728397371258
10
223.07259903750003
20
96.679728397371264
42
-0.4142135623730992
10
221.82259903750003
20
95.429728397371264
10
126.02959903749996
20
95.42972839737125
42
-0.4142135623730992
10
124.77959903749996
20
96.679728397371264
10
124.77959903749996
20
99.029728397371258
42
0.41421356237309503
10
123.37959903749996
20
100.42972839737126
10
123.37959903749997
20
97.454728397371255
42
-0.41421356237310025
10
122.37959903749997
20
96.454728397371241
10
122.17959903749998
20
96.454728397371255
42
-0.41421356237309503
10
121.1795990375
20
97.454728397371241
10
121.1795990375
20
100.42972839737126
42
0.41421356237309503
10
119.77959903749998
20
99.029728397371258
10
119.77959903749998
20
96.679728397371264
42
-0.4142135623730992
10
118.52959903749999
20
95.429728397371264
10
22.737985562499983
20
95.429728397371264
42
-0.41421356237310442
10
21.487985562499979
20
96.679728397371264
10
21.487985562499986
20
99.029728397371258
42
0.41421356237309875
10
20.087985562499945
20
100.42972839737129
10
20.087985562499977
20
97.454728397371255
42
-0.4142135623731022
10
19.087985562499973
20
96.454728397371241
10
18.887985562500006
20
96.454728397371241
42
-0.41421356237309698
10
17.887985562500003
20
97.454728397371241
10
17.887985562500035
20
100.42972839737126
42
0.41421356237309875
10
16.487985562499993
20
99.029728397371258
10
16.4879855625
20
96.679728397371264
42
-0.41421356237310386
10
15.237985562499999
20
95.429728397371264
0
ENDSEC
0
SECTION
2
OBJECTS
0
DICTIONARY
5
C
100
AcDbDictionary
3
ACAD_GROUP
350
D
3
ACAD_MLINESTYLE
350
17
0
DICTIONARY
5
D
100
AcDbDictionary
0
DICTIONARY
5
1A
330
C
100
AcDbDictionary
0
DICTIONARY
5
17
100
AcDbDictionary
0
ENDSEC
0
EOF
